<svg xmlns="http://www.w3.org/2000/svg" viewBox="0 0 1200 800" role="img" aria-label="Tree frog illustration">
  <defs>
    <linearGradient id="bg" x1="0" y1="0" x2="1" y2="1">
      <stop offset="0%" stop-color="#091c10"/>
      <stop offset="55%" stop-color="#245f35"/>
      <stop offset="100%" stop-color="#8ac46c"/>
    </linearGradient>
    <radialGradient id="glow" cx="40%" cy="20%" r="68%">
      <stop offset="0%" stop-color="#eaffbe" stop-opacity="0.6"/>
      <stop offset="100%" stop-color="#eaffbe" stop-opacity="0"/>
    </radialGradient>
  </defs>
  <rect width="1200" height="800" fill="url(#bg)"/>
  <circle cx="340" cy="158" r="300" fill="url(#glow)"/>
  <path d="M0 564c130-28 243-28 341 0 95 26 174 56 274 60 124 5 222-24 321-59 120-43 205-54 264-41v276H0z" fill="#16301b"/>
  <g transform="translate(330 180)">
    <path d="M197 94c78 0 143 45 168 112 12 33 7 66-14 99-18 27-43 48-76 61-42 17-88 22-136 15-54-7-99-27-135-58-39-33-58-72-58-115 0-42 19-79 58-111 39-33 87-50 143-50z" fill="#3bd05a"/>
    <ellipse cx="197" cy="198" rx="144" ry="108" fill="#86e06e"/>
    <ellipse cx="197" cy="190" rx="110" ry="83" fill="#59b93f"/>
    <circle cx="149" cy="170" r="20" fill="#fff"/>
    <circle cx="250" cy="170" r="20" fill="#fff"/>
    <circle cx="149" cy="170" r="10" fill="#173016"/>
    <circle cx="250" cy="170" r="10" fill="#173016"/>
    <path d="M151 228c18 18 69 18 88 0" fill="none" stroke="#173016" stroke-width="11" stroke-linecap="round"/>
    <path d="M82 236c-55 28-83 67-83 117" fill="none" stroke="#5fd14f" stroke-width="34" stroke-linecap="round"/>
    <path d="M315 236c55 28 83 67 83 117" fill="none" stroke="#5fd14f" stroke-width="34" stroke-linecap="round"/>
    <path d="M105 387c-28 26-39 58-33 96" fill="none" stroke="#5fd14f" stroke-width="26" stroke-linecap="round"/>
    <path d="M286 387c28 26 39 58 33 96" fill="none" stroke="#5fd14f" stroke-width="26" stroke-linecap="round"/>
    <circle cx="108" cy="402" r="20" fill="#173016"/>
    <circle cx="288" cy="402" r="20" fill="#173016"/>
    <path d="M134 116c-52 12-90 42-112 88" fill="none" stroke="#9bf26e" stroke-width="18" stroke-linecap="round" opacity="0.8"/>
    <path d="M272 116c52 12 90 42 112 88" fill="none" stroke="#9bf26e" stroke-width="18" stroke-linecap="round" opacity="0.8"/>
  </g>
</svg>