<svg xmlns="http://www.w3.org/2000/svg" viewBox="0 0 1200 800" role="img" aria-label="Tiger illustration">
  <defs>
    <linearGradient id="bg" x1="0" y1="0" x2="1" y2="1">
      <stop offset="0%" stop-color="#16120c"/>
      <stop offset="52%" stop-color="#4d3117"/>
      <stop offset="100%" stop-color="#c88932"/>
    </linearGradient>
    <radialGradient id="glow" cx="44%" cy="24%" r="68%">
      <stop offset="0%" stop-color="#ffe4a1" stop-opacity="0.65"/>
      <stop offset="100%" stop-color="#ffe4a1" stop-opacity="0"/>
    </radialGradient>
  </defs>
  <rect width="1200" height="800" fill="url(#bg)"/>
  <circle cx="420" cy="208" r="320" fill="url(#glow)"/>
  <path d="M0 640c114-76 214-104 314-86 87 15 168 51 259 52 102 0 195-42 309-70 133-32 236-20 318 35v229H0z" fill="#1d2b18"/>
  <g transform="translate(190 118)">
    <path d="M327 82c74 0 136 57 140 130 3 52-22 99-63 128-13 9-27 15-42 18l-26 6-8 24c-8 26-29 45-56 52-52 14-105 10-157-12-49-21-78-63-79-118-2-66 30-119 85-147l76-39 33-34c20-20 46-30 77-30z" fill="#f0b95c"/>
    <path d="M321 115c50 0 94 39 97 89 2 34-14 65-39 85-10 8-22 13-35 16l-22 5-6 20c-7 22-23 37-46 43-44 11-87 8-130-11-41-18-65-51-66-95-2-53 24-96 70-119l63-32 28-28c16-15 37-23 66-23z" fill="#7b4314" opacity="0.96"/>
    <ellipse cx="322" cy="209" rx="120" ry="103" fill="#f6c364"/>
    <ellipse cx="322" cy="206" rx="92" ry="82" fill="#e27f1f"/>
    <circle cx="288" cy="185" r="11" fill="#fff"/>
    <circle cx="356" cy="185" r="11" fill="#fff"/>
    <path d="M300 225c18 14 38 14 54 0" fill="none" stroke="#fff6e8" stroke-width="10" stroke-linecap="round"/>
    <path d="M214 144c-28 25-52 51-74 80" fill="none" stroke="#2b1609" stroke-width="18" stroke-linecap="round"/>
    <path d="M242 130c-30 35-47 69-56 106" fill="none" stroke="#2b1609" stroke-width="18" stroke-linecap="round"/>
    <path d="M405 145c28 25 52 51 74 80" fill="none" stroke="#2b1609" stroke-width="18" stroke-linecap="round"/>
    <path d="M378 130c30 35 47 69 56 106" fill="none" stroke="#2b1609" stroke-width="18" stroke-linecap="round"/>
    <path d="M191 476c28-29 61-50 97-63 31-12 67-15 107-10 44 6 84 21 121 45 31 20 58 47 81 82" fill="none" stroke="#2b1609" stroke-width="18" stroke-linecap="round" opacity="0.55"/>
    <path d="M194 468c28-29 60-49 95-61 32-12 68-15 108-11 43 5 82 20 119 44 31 20 57 46 80 81" fill="#d38a35" opacity="0.9"/>
    <path d="M214 492c30-19 61-32 95-39 35-7 73-8 114-2 40 6 78 20 114 42 25 16 47 36 67 60" fill="#f5d392" opacity="0.38"/>
    <path d="M212 488c20-56 53-99 100-132 21-15 44-25 68-33 18-6 29-20 35-41 10-37 27-59 50-66 33-10 73 5 121 45 48 40 85 93 111 159" fill="none" stroke="#1a0f09" stroke-width="16" stroke-linecap="round" opacity="0.28"/>
  </g>
</svg>