<svg xmlns="http://www.w3.org/2000/svg" viewBox="0 0 1600 700" role="img" aria-label="WildGuard savanna banner">
  <defs>
    <linearGradient id="sky" x1="0" y1="0" x2="0" y2="1">
      <stop offset="0%" stop-color="#0e2016"/>
      <stop offset="45%" stop-color="#27472f"/>
      <stop offset="100%" stop-color="#d8c58a"/>
    </linearGradient>
    <radialGradient id="sun" cx="58%" cy="24%" r="38%">
      <stop offset="0%" stop-color="#ffefba" stop-opacity="0.9"/>
      <stop offset="100%" stop-color="#ffefba" stop-opacity="0"/>
    </radialGradient>
    <linearGradient id="ground" x1="0" y1="0" x2="0" y2="1">
      <stop offset="0%" stop-color="#45683f"/>
      <stop offset="100%" stop-color="#1f351f"/>
    </linearGradient>
  </defs>
  <rect width="1600" height="700" fill="url(#sky)"/>
  <circle cx="980" cy="168" r="240" fill="url(#sun)"/>
  <path d="M0 430C150 385 260 376 365 392c99 15 181 34 263 24 112-15 188-83 309-86 132-4 221 66 349 70 123 4 185-26 314-61V700H0z" fill="url(#ground)"/>
  <path d="M0 470c126-14 226-3 323 29 122 40 205 47 315 6 110-41 176-91 299-94 126-4 236 44 357 76 143 38 241 19 306 0v219H0z" fill="#233723" opacity="0.9"/>
  <g fill="#18281a" opacity="0.95">
    <path d="M206 522c34-46 74-70 117-70 40 0 76 18 108 54 29 33 45 71 50 114H110c16-39 51-75 96-98z"/>
    <path d="M616 512c29-31 63-46 104-46 39 0 74 13 106 40 31 26 52 62 63 106H551c8-38 30-73 65-100z"/>
    <path d="M1090 507c34-44 76-66 118-66 42 0 79 17 111 51 30 32 49 70 56 113H995c17-39 48-74 95-98z"/>
  </g>
  <g fill="#f4e5bf" opacity="0.12">
    <circle cx="340" cy="134" r="96"/>
    <circle cx="1280" cy="114" r="84"/>
  </g>
  <g transform="translate(580 290) scale(1.15)">
    <path d="M197 123c-43 0-77 35-77 78 0 40 27 74 64 81 24 4 48 1 70-9 14-6 23-18 28-32l8-22 29-7c25-6 43-29 43-54 0-32-26-58-58-58h-107z" fill="#d4a64f" opacity="0.95"/>
    <path d="M188 105c32 0 61 26 61 58v12c0 10 8 18 18 18h5c12 0 21 10 21 21v13c0 34-28 62-62 62h-93c-28 0-51-23-51-51v-24c0-25 17-47 41-54l39-12 15-38c9-23 31-37 56-37z" fill="#1b2d1c"/>
    <path d="M198 128c37 0 67 30 67 67v8c0 11 9 20 20 20h4c14 0 26 11 26 26v13c0 37-30 67-67 67h-121c-31 0-56-25-56-56v-28c0-29 19-54 47-63l44-14 16-41c10-25 35-41 61-41z" fill="#6c8e42" opacity="0.55"/>
    <ellipse cx="183" cy="183" rx="90" ry="78" fill="#f1c26d"/>
    <ellipse cx="186" cy="182" rx="74" ry="64" fill="#c87b21"/>
    <ellipse cx="184" cy="190" rx="32" ry="26" fill="#3d2112"/>
    <circle cx="158" cy="172" r="8" fill="#fdf7e8"/>
    <circle cx="206" cy="172" r="8" fill="#fdf7e8"/>
    <path d="M167 216c14 14 28 14 37 0" fill="none" stroke="#fff4d7" stroke-width="7" stroke-linecap="round"/>
    <path d="M121 286c36-14 73-20 110-20 50 0 109 12 160 43" fill="none" stroke="#fff5e3" stroke-width="10" stroke-linecap="round" opacity="0.35"/>
  </g>
</svg>